<?xml version="1.0" encoding="UTF-8"?>
<svg xmlns="http://www.w3.org/2000/svg" viewBox="0 0 1000 650">
  <!-- Background -->
  <rect width="1000" height="650" fill="#f8f9fa" />

  <!-- Title -->
  <text x="500" y="30" text-anchor="middle" font-family="Arial" font-size="24" font-weight="bold" fill="#333">Order Tracking Sequence Diagram</text>

  <!-- Actor & Object Boxes -->
  <rect x="50" y="60" width="100" height="50" rx="5" ry="5" fill="#fff3e0" stroke="#e65100" stroke-width="2" />
  <text x="100" y="90" text-anchor="middle" font-family="Arial" font-size="14" fill="#333">Customer</text>
  
  <rect x="250" y="60" width="100" height="50" rx="5" ry="5" fill="#fff3e0" stroke="#e65100" stroke-width="2" />
  <text x="300" y="90" text-anchor="middle" font-family="Arial" font-size="14" fill="#333">Customer Portal</text>
  
  <rect x="450" y="60" width="100" height="50" rx="5" ry="5" fill="#fff3e0" stroke="#e65100" stroke-width="2" />
  <text x="500" y="90" text-anchor="middle" font-family="Arial" font-size="14" fill="#333">Order</text>
  
  <rect x="650" y="60" width="100" height="50" rx="5" ry="5" fill="#fff3e0" stroke="#e65100" stroke-width="2" />
  <text x="700" y="90" text-anchor="middle" font-family="Arial" font-size="14" fill="#333">Production Stage</text>

  <rect x="850" y="60" width="100" height="50" rx="5" ry="5" fill="#fff3e0" stroke="#e65100" stroke-width="2" />
  <text x="900" y="90" text-anchor="middle" font-family="Arial" font-size="14" fill="#333">Shipping</text>

  <!-- Lifelines -->
  <line x1="100" y1="110" x2="100" y2="600" stroke="#ccc" stroke-width="2" stroke-dasharray="5,5" />
  <line x1="300" y1="110" x2="300" y2="600" stroke="#ccc" stroke-width="2" stroke-dasharray="5,5" />
  <line x1="500" y1="110" x2="500" y2="600" stroke="#ccc" stroke-width="2" stroke-dasharray="5,5" />
  <line x1="700" y1="110" x2="700" y2="600" stroke="#ccc" stroke-width="2" stroke-dasharray="5,5" />
  <line x1="900" y1="110" x2="900" y2="600" stroke="#ccc" stroke-width="2" stroke-dasharray="5,5" />

  <!-- Activation Boxes -->
  <rect x="95" y="150" width="10" height="430" fill="#ffe0b2" stroke="#e65100" stroke-width="1" />
  <rect x="295" y="160" width="10" height="410" fill="#ffe0b2" stroke="#e65100" stroke-width="1" />
  <rect x="495" y="180" width="10" height="100" fill="#ffe0b2" stroke="#e65100" stroke-width="1" />
  <rect x="695" y="320" width="10" height="80" fill="#ffe0b2" stroke="#e65100" stroke-width="1" />
  <rect x="895" y="460" width="10" height="100" fill="#ffe0b2" stroke="#e65100" stroke-width="1" />

  <!-- Messages -->
  <!-- Login -->
  <line x1="105" y1="160" x2="295" y2="160" stroke="#333" stroke-width="1.5" marker-end="url(#arrow)" />
  <text x="200" y="155" text-anchor="middle" font-family="Arial" font-size="12" fill="#333">1. login()</text>

  <!-- Request Order Status -->
  <line x1="105" y1="180" x2="295" y2="180" stroke="#333" stroke-width="1.5" marker-end="url(#arrow)" />
  <text x="200" y="175" text-anchor="middle" font-family="Arial" font-size="12" fill="#333">2. requestOrderStatus(orderId)</text>

  <!-- Get Order Details -->
  <line x1="305" y1="200" x2="495" y2="200" stroke="#333" stroke-width="1.5" marker-end="url(#arrow)" />
  <text x="400" y="195" text-anchor="middle" font-family="Arial" font-size="12" fill="#333">3. getOrderDetails(orderId)</text>

  <!-- Return Order Status -->
  <line x1="505" y1="220" x2="550" y2="220" stroke="#333" stroke-width="1.5" />
  <line x1="550" y1="220" x2="550" y2="240" stroke="#333" stroke-width="1.5" />
  <line x1="550" y1="240" x2="505" y2="240" stroke="#333" stroke-width="1.5" marker-end="url(#arrow)" />
  <text x="570" y="230" text-anchor="start" font-family="Arial" font-size="12" fill="#333">4. retrieveStatus()</text>

  <!-- Return Basic Order Info -->
  <line x1="495" y1="280" x2="305" y2="280" stroke="#333" stroke-width="1.5" stroke-dasharray="5,5" marker-end="url(#arrow)" />
  <text x="400" y="275" text-anchor="middle" font-family="Arial" font-size="12" fill="#333">5. Return basic order info</text>

  <!-- Get Production Details -->
  <line x1="305" y1="320" x2="695" y2="320" stroke="#333" stroke-width="1.5" marker-end="url(#arrow)" />
  <text x="500" y="315" text-anchor="middle" font-family="Arial" font-size="12" fill="#333">6. getProductionStages(orderId)</text>

  <!-- Get Production Status -->
  <line x1="705" y1="340" x2="750" y2="340" stroke="#333" stroke-width="1.5" />
  <line x1="750" y1="340" x2="750" y2="360" stroke="#333" stroke-width="1.5" />
  <line x1="750" y1="360" x2="705" y2="360" stroke="#333" stroke-width="1.5" marker-end="url(#arrow)" />
  <text x="770" y="350" text-anchor="start" font-family="Arial" font-size="12" fill="#333">7. retrieveStages()</text>

  <!-- Return Production Status -->
  <line x1="695" y1="400" x2="305" y2="400" stroke="#333" stroke-width="1.5" stroke-dasharray="5,5" marker-end="url(#arrow)" />
  <text x="500" y="395" text-anchor="middle" font-family="Arial" font-size="12" fill="#333">8. Return production status</text>

  <!-- Get Shipping Details -->
  <line x1="305" y1="460" x2="895" y2="460" stroke="#333" stroke-width="1.5" marker-end="url(#arrow)" />
  <text x="600" y="455" text-anchor="middle" font-family="Arial" font-size="12" fill="#333">9. getShippingDetails(orderId)</text>

  <!-- Get Tracking Info -->
  <line x1="905" y1="480" x2="950" y2="480" stroke="#333" stroke-width="1.5" />
  <line x1="950" y1="480" x2="950" y2="500" stroke="#333" stroke-width="1.5" />
  <line x1="950" y1="500" x2="905" y2="500" stroke="#333" stroke-width="1.5" marker-end="url(#arrow)" />
  <text x="970" y="490" text-anchor="start" font-family="Arial" font-size="12" fill="#333">10. retrieveTracking()</text>

  <!-- Return Shipping Info -->
  <line x1="895" y1="540" x2="305" y2="540" stroke="#333" stroke-width="1.5" stroke-dasharray="5,5" marker-end="url(#arrow)" />
  <text x="600" y="535" text-anchor="middle" font-family="Arial" font-size="12" fill="#333">11. Return shipping information</text>

  <!-- Display Status Information -->
  <line x1="295" y1="580" x2="105" y2="580" stroke="#333" stroke-width="1.5" stroke-dasharray="5,5" marker-end="url(#arrow)" />
  <text x="200" y="575" text-anchor="middle" font-family="Arial" font-size="12" fill="#333">12. Display order tracking information</text>

  <!-- Arrow Marker Definition -->
  <defs>
    <marker id="arrow" markerWidth="10" markerHeight="10" refX="9" refY="3" orient="auto" markerUnits="strokeWidth">
      <path d="M0,0 L0,6 L9,3 z" fill="#333" />
    </marker>
  </defs>
</svg>