<?xml version="1.0" encoding="UTF-8"?>
<svg xmlns="http://www.w3.org/2000/svg" viewBox="0 0 1000 900">
  <!-- Background -->
  <rect width="1000" height="900" fill="#f8f9fa" />

  <!-- Title -->
  <text x="500" y="30" text-anchor="middle" font-family="Arial" font-size="24" font-weight="bold" fill="#333">PrintingHouseMS Use Case Diagram</text>

  <!-- System Boundary -->
  <rect x="200" y="60" width="600" height="760" rx="10" ry="10" fill="none" stroke="#666" stroke-width="2" stroke-dasharray="5,5" />
  <text x="500" y="85" text-anchor="middle" font-family="Arial" font-size="16" font-weight="bold" fill="#333">PrintingHouseMS System</text>

  <!-- Actors -->
  <!-- Customer Actor -->
  <circle cx="100" cy="200" r="20" fill="#f5f5f5" stroke="#333" stroke-width="1.5" />
  <line x1="100" y1="220" x2="100" y2="270" stroke="#333" stroke-width="1.5" />
  <line x1="70" y1="240" x2="130" y2="240" stroke="#333" stroke-width="1.5" />
  <line x1="100" y1="270" x2="70" y2="310" stroke="#333" stroke-width="1.5" />
  <line x1="100" y1="270" x2="130" y2="310" stroke="#333" stroke-width="1.5" />
  <text x="100" y="340" text-anchor="middle" font-family="Arial" font-size="14" fill="#333">Customer</text>

  <!-- Production Staff Actor -->
  <circle cx="100" cy="450" r="20" fill="#f5f5f5" stroke="#333" stroke-width="1.5" />
  <line x1="100" y1="470" x2="100" y2="520" stroke="#333" stroke-width="1.5" />
  <line x1="70" y1="490" x2="130" y2="490" stroke="#333" stroke-width="1.5" />
  <line x1="100" y1="520" x2="70" y2="560" stroke="#333" stroke-width="1.5" />
  <line x1="100" y1="520" x2="130" y2="560" stroke="#333" stroke-width="1.5" />
  <text x="100" y="590" text-anchor="middle" font-family="Arial" font-size="14" fill="#333">Production Staff</text>

  <!-- Management Actor -->
  <circle cx="900" cy="200" r="20" fill="#f5f5f5" stroke="#333" stroke-width="1.5" />
  <line x1="900" y1="220" x2="900" y2="270" stroke="#333" stroke-width="1.5" />
  <line x1="870" y1="240" x2="930" y2="240" stroke="#333" stroke-width="1.5" />
  <line x1="900" y1="270" x2="870" y2="310" stroke="#333" stroke-width="1.5" />
  <line x1="900" y1="270" x2="930" y2="310" stroke="#333" stroke-width="1.5" />
  <text x="900" y="340" text-anchor="middle" font-family="Arial" font-size="14" fill="#333">Management</text>

  <!-- Shipping Staff Actor -->
  <circle cx="900" cy="450" r="20" fill="#f5f5f5" stroke="#333" stroke-width="1.5" />
  <line x1="900" y1="470" x2="900" y2="520" stroke="#333" stroke-width="1.5" />
  <line x1="870" y1="490" x2="930" y2="490" stroke="#333" stroke-width="1.5" />
  <line x1="900" y1="520" x2="870" y2="560" stroke="#333" stroke-width="1.5" />
  <line x1="900" y1="520" x2="930" y2="560" stroke="#333" stroke-width="1.5" />
  <text x="900" y="590" text-anchor="middle" font-family="Arial" font-size="14" fill="#333">Shipping Staff</text>

  <!-- Payment System Actor -->
  <rect x="870" y="650" width="60" height="60" fill="#f5f5f5" stroke="#333" stroke-width="1.5" />
  <text x="900" y="730" text-anchor="middle" font-family="Arial" font-size="14" fill="#333">Payment System</text>

  <!-- Use Cases -->
  <!-- Account Management Group -->
  <ellipse cx="320" cy="140" rx="100" ry="30" fill="#e3f2fd" stroke="#1976d2" stroke-width="1.5" />
  <text x="320" y="145" text-anchor="middle" font-family="Arial" font-size="14" fill="#333">Manage Account</text>

  <!-- Order Management Group -->
  <ellipse cx="320" cy="220" rx="100" ry="30" fill="#e3f2fd" stroke="#1976d2" stroke-width="1.5" />
  <text x="320" y="225" text-anchor="middle" font-family="Arial" font-size="14" fill="#333">Configure Book</text>

  <ellipse cx="320" cy="300" rx="100" ry="30" fill="#e3f2fd" stroke="#1976d2" stroke-width="1.5" />
  <text x="320" y="305" text-anchor="middle" font-family="Arial" font-size="14" fill="#333">Upload Files</text>

  <ellipse cx="320" cy="380" rx="100" ry="30" fill="#e3f2fd" stroke="#1976d2" stroke-width="1.5" />
  <text x="320" y="385" text-anchor="middle" font-family="Arial" font-size="14" fill="#333">Place Order</text>

  <ellipse cx="320" cy="460" rx="100" ry="30" fill="#e3f2fd" stroke="#1976d2" stroke-width="1.5" />
  <text x="320" y="465" text-anchor="middle" font-family="Arial" font-size="14" fill="#333">Track Order</text>

  <ellipse cx="320" cy="540" rx="100" ry="30" fill="#e3f2fd" stroke="#1976d2" stroke-width="1.5" />
  <text x="320" y="545" text-anchor="middle" font-family="Arial" font-size="14" fill="#333">Process Payment</text>

  <!-- Production Management Group -->
  <ellipse cx="500" cy="620" rx="100" ry="30" fill="#e8f5e9" stroke="#388e3c" stroke-width="1.5" />
  <text x="500" y="625" text-anchor="middle" font-family="Arial" font-size="14" fill="#333">Assign Staff</text>

  <ellipse cx="500" cy="700" rx="100" ry="30" fill="#e8f5e9" stroke="#388e3c" stroke-width="1.5" />
  <text x="500" y="705" text-anchor="middle" font-family="Arial" font-size="14" fill="#333">Manage Production</text>

  <ellipse cx="500" cy="780" rx="100" ry="30" fill="#e8f5e9" stroke="#388e3c" stroke-width="1.5" />
  <text x="500" y="785" text-anchor="middle" font-family="Arial" font-size="14" fill="#333">Perform QC</text>

  <!-- Shipping Group -->
  <ellipse cx="680" cy="460" rx="100" ry="30" fill="#fff3e0" stroke="#e65100" stroke-width="1.5" />
  <text x="680" y="465" text-anchor="middle" font-family="Arial" font-size="14" fill="#333">Prepare Shipping</text>

  <!-- Communication Group -->
  <ellipse cx="680" cy="300" rx="100" ry="30" fill="#fff3e0" stroke="#e65100" stroke-width="1.5" />
  <text x="680" y="305" text-anchor="middle" font-family="Arial" font-size="14" fill="#333">Manage Communications</text>

  <!-- System Management Group -->
  <ellipse cx="680" cy="140" rx="100" ry="30" fill="#fff3e0" stroke="#e65100" stroke-width="1.5" />
  <text x="680" y="145" text-anchor="middle" font-family="Arial" font-size="14" fill="#333">Configure Notifications</text>

  <ellipse cx="680" cy="220" rx="100" ry="30" fill="#fff3e0" stroke="#e65100" stroke-width="1.5" />
  <text x="680" y="225" text-anchor="middle" font-family="Arial" font-size="14" fill="#333">Generate Reports</text>

  <ellipse cx="680" cy="380" rx="100" ry="30" fill="#fff3e0" stroke="#e65100" stroke-width="1.5" />
  <text x="680" y="385" text-anchor="middle" font-family="Arial" font-size="14" fill="#333">Manage Inventory</text>

  <!-- Connections -->
  <!-- Customer Connections -->
  <line x1="130" y1="200" x2="220" y2="140" stroke="#333" stroke-width="1.5" />
  <line x1="130" y1="200" x2="220" y2="220" stroke="#333" stroke-width="1.5" />
  <line x1="130" y1="200" x2="220" y2="300" stroke="#333" stroke-width="1.5" />
  <line x1="130" y1="200" x2="220" y2="380" stroke="#333" stroke-width="1.5" />
  <line x1="130" y1="200" x2="220" y2="460" stroke="#333" stroke-width="1.5" />
  
  <!-- Production Staff Connections -->
  <line x1="130" y1="450" x2="400" y2="620" stroke="#333" stroke-width="1.5" />
  <line x1="130" y1="450" x2="400" y2="700" stroke="#333" stroke-width="1.5" />
  <line x1="130" y1="450" x2="400" y2="780" stroke="#333" stroke-width="1.5" />
  <line x1="130" y1="450" x2="580" y2="300" stroke="#333" stroke-width="1.5" />
  
  <!-- Management Connections -->
  <line x1="870" y1="200" x2="780" y2="140" stroke="#333" stroke-width="1.5" />
  <line x1="870" y1="200" x2="780" y2="220" stroke="#333" stroke-width="1.5" />
  <line x1="870" y1="200" x2="780" y2="380" stroke="#333" stroke-width="1.5" />
  <line x1="870" y1="200" x2="600" y2="620" stroke="#333" stroke-width="1.5" />
  
  <!-- Shipping Staff Connections -->
  <line x1="870" y1="450" x2="780" y2="460" stroke="#333" stroke-width="1.5" />
  
  <!-- Payment System Connections -->
  <line x1="870" y1="680" x2="420" y2="540" stroke="#333" stroke-width="1.5" />
  
  <!-- Include/Extend Relationships -->
  <line x1="320" y1="410" x2="320" y2="530" stroke="#333" stroke-width="1.5" stroke-dasharray="5,5" />
  <polygon points="315,525 320,540 325,525" fill="#333" stroke="#333" stroke-width="1" />
  
  <line x1="320" y1="410" x2="320" y2="490" stroke="#333" stroke-width="1.5" stroke-dasharray="5,5" />
  <polygon points="315,425 320,410 325,425" fill="#333" stroke="#333" stroke-width="1" />
  
  <line x1="320" y1="250" x2="320" y2="280" stroke="#333" stroke-width="1.5" stroke-dasharray="5,5" />
  <polygon points="315,275 320,290 325,275" fill="#333" stroke="#333" stroke-width="1" />

  <line x1="600" y1="700" x2="600" y2="770" stroke="#333" stroke-width="1.5" stroke-dasharray="5,5" />
  <polygon points="595,765 600,780 605,765" fill="#333" stroke="#333" stroke-width="1" />
  
  <!-- Legend -->
  <rect x="800" y="780" width="20" height="20" fill="#e3f2fd" stroke="#1976d2" stroke-width="1.5" />
  <text x="830" y="795" text-anchor="start" font-family="Arial" font-size="12" fill="#333">Customer Functions</text>
  
  <rect x="800" y="810" width="20" height="20" fill="#e8f5e9" stroke="#388e3c" stroke-width="1.5" />
  <text x="830" y="825" text-anchor="start" font-family="Arial" font-size="12" fill="#333">Production Functions</text>
  
  <rect x="800" y="840" width="20" height="20" fill="#fff3e0" stroke="#e65100" stroke-width="1.5" />
  <text x="830" y="855" text-anchor="start" font-family="Arial" font-size="12" fill="#333">Management Functions</text>
</svg>