<svg viewBox="0 0 1500 700" xmlns="http://www.w3.org/2000/svg">
  <style>
    .pool { fill: #ffffff; stroke: #000000; stroke-width: 2; }
    .lane { fill: #ffffff; stroke: #000000; stroke-width: 1; }
    .lane-title { font-family: Arial, sans-serif; font-size: 14px; font-weight: bold; writing-mode: tb; text-anchor: middle; }
    .task { fill: #ffffff; stroke: #000000; stroke-width: 1; rx: 10; ry: 10; }
    .event { fill: #ffffff; stroke: #000000; stroke-width: 2; }
    .gateway { fill: #ffffff; stroke: #000000; stroke-width: 1; }
    .flow { stroke: #000000; stroke-width: 1.5; fill: none; marker-end: url(#arrowhead); }
    .flow-label { font-family: Arial, sans-serif; font-size: 11px; fill: #333333; }
    .text { font-family: Arial, sans-serif; font-size: 11px; fill: #000000; text-anchor: middle; }
    .title { font-family: Arial, sans-serif; font-size: 22px; font-weight: bold; fill: #000000; text-anchor: middle; }
    .quality-task { fill: #ffffcc; stroke: #cc9900; stroke-width: 1; rx: 10; ry: 10; }
  </style>
  
  <defs>
    <marker id="arrowhead" markerWidth="10" markerHeight="7" refX="9" refY="3.5" orient="auto">
      <polygon points="0 0, 10 3.5, 0 7" fill="#000000" />
    </marker>
  </defs>
  
  <text class="title" x="750" y="30">Production Workflow Management</text>
  
  <!-- Main Pool -->
  <rect class="pool" x="50" y="60" width="1400" height="580" />
  
  <!-- Production Manager Lane -->
  <rect class="lane" x="50" y="60" width="1400" height="120" />
  <text class="lane-title" x="80" y="120">Production </text>
  <line x1="110" y1="60" x2="110" y2="180" stroke="#000000" stroke-width="1" />
  
  <!-- Pre-Press Lane -->
  <rect class="lane" x="50" y="180" width="1400" height="120" />
  <text class="lane-title" x="80" y="240">Pre-Press</text>
  <line x1="110" y1="180" x2="110" y2="300" stroke="#000000" stroke-width="1" />
  
  <!-- Printing Lane -->
  <rect class="lane" x="50" y="300" width="1400" height="120" />
  <text class="lane-title" x="80" y="360">Printing</text>
  <line x1="110" y1="300" x2="110" y2="420" stroke="#000000" stroke-width="1" />
  
  <!-- Binding Lane -->
  <rect class="lane" x="50" y="420" width="1400" height="120" />
  <text class="lane-title" x="80" y="480">Binding</text>
  <line x1="110" y1="420" x2="110" y2="540" stroke="#000000" stroke-width="1" />
  
  <!-- Quality Control Lane -->
  <rect class="lane" x="50" y="540" width="1400" height="100" />
  <text class="lane-title" x="80" y="590">Quality-Control</text>
  <line x1="110" y1="540" x2="110" y2="640" stroke="#000000" stroke-width="1" />
  
  <!-- Production Manager Process -->
  <!-- Start Event -->
  <circle class="event" cx="150" cy="120" r="18" />
  <text class="text" x="150" y="155">Production Order</text>
  
  <!-- Schedule Production -->
  <rect class="task" x="200" y="90" width="100" height="60" />
  <text class="text" x="250" y="110">Schedule Production</text>
    <text class="text" x="250" y="130">Assign Resources</text>

  
  <!-- Monitor Progress -->
  <rect class="task" x="950" y="90" width="100" height="60" />
  <text class="text" x="1000" y="110">Monitor </text>
    <text class="text" x="1000" y="130">Production Progress</text>

  
  <!-- Update Status -->
  <rect class="task" x="1250" y="90" width="100" height="60" />
  <text class="text" x="1300" y="125">Update Order Status</text>
  
  <!-- Pre-Press Process -->
  <!-- Review Files -->
  <rect class="task" x="200" y="210" width="100" height="60" />
  <text class="text" x="250" y="230">Review</text>
    <text class="text" x="250" y="250">Manuscript Files</text>

  
  <!-- Format Check -->
  <rect class="task" x="340" y="210" width="100" height="60" />
  <text class="text" x="390" y="230">Format</text>
    <text class="text" x="390" y="250">Layout Check</text>

  
  <!-- Gateway - Format OK? -->
  <rect class="gateway" x="470" y="210" width="50" height="50" transform="rotate(45 495 235)" />
  <text class="text" x="495" y="290">Format OK?</text>
  
  <!-- Create Plates -->
  <rect class="task" x="550" y="210" width="100" height="60" />
  <text class="text" x="600" y="230">Create Printing </text>
    <text class="text" x="600" y="250">Plates</text>

  
  <!-- Proof Generation -->
  <rect class="task" x="690" y="210" width="100" height="60" />
  <text class="text" x="740" y="245">Generate Print Proof</text>
  
  <!-- Printing Process -->
  <!-- Setup Press -->
  <rect class="task" x="550" y="330" width="100" height="60" />
  <text class="text" x="600" y="365">Setup Printing Press</text>
  
  <!-- Print Run -->
  <rect class="task" x="690" y="330" width="100" height="60" />
  <text class="text" x="740" y="365">Execute Print Run</text>
  
  <!-- Gateway - Print Quality? -->
  <rect class="gateway" x="820" y="330" width="50" height="50" transform="rotate(45 845 355)" />
  <text class="text" x="845" y="410">Quality OK?</text>
  
  <!-- Binding Process -->
  <!-- Cut Pages -->
  <rect class="task" x="690" y="450" width="100" height="60" />
  <text class="text" x="740" y="485">Cut - Collate Pages</text>
  
  <!-- Gateway - Binding Type -->
  <rect class="gateway" x="820" y="450" width="50" height="50" transform="rotate(45 845 475)" />
  <text class="text" x="845" y="530">Binding Type?</text>
  
  <!-- Hardcover Binding -->
  <rect class="task" x="900" y="420" width="100" height="60" />
  <text class="text" x="950" y="455">Hardcover Binding</text>
  
  <!-- Paperback Binding -->
  <rect class="task" x="900" y="480" width="100" height="60" />
  <text class="text" x="950" y="515">Paperback Binding</text>
  
  <!-- Quality Control Process -->
  <!-- Final Inspection -->
  <rect class="quality-task" x="1100" y="570" width="100" height="60" />
  <text class="text" x="1150" y="605">Final Quality Inspection</text>
  
  <!-- Gateway - QC Pass? -->
  <rect class="gateway" x="1240" y="570" width="50" height="50" transform="rotate(45 1265 595)" />
  <text class="text" x="1265" y="600">QC Pass?</text>
  
  <!-- Package Books -->
  <rect class="task" x="1320" y="570" width="100" height="60" />
  <text class="text" x="1370" y="605">Package Books</text>
  
  <!-- End Event -->
  <circle class="event" cx="1400" cy="120" r="18" />
  <circle cx="1400" cy="120" r="14" fill="#ffffff" stroke="#000000" stroke-width="2" />
  <text class="text" x="1400" y="155">Ready for Shipping</text>
  
  <!-- Flow Connections -->
  <!-- Production Manager Flow -->
  <path class="flow" d="M168 120 H200" />
  <path class="flow" d="M1050 120 H1250" />
  <path class="flow" d="M1350 120 H1382" />
  
  <!-- Pre-Press Flow -->
  <path class="flow" d="M300 240 H340" />
  <path class="flow" d="M440 235 H470" />
  <path class="flow" d="M520 235 H550" />
  <path class="flow" d="M650 240 H690" />
  
  <!-- Printing Flow -->
  <path class="flow" d="M650 365 H690" />
  <path class="flow" d="M790 355 H820" />
  
  <!-- Binding Flow -->
  <path class="flow" d="M790 485 H820" />
  <path class="flow" d="M870 475 H900" />
  <path class="flow" d="M870 485 H900" />
  
  <!-- Quality Control Flow -->
  <path class="flow" d="M1200 600 H1240" />
  <path class="flow" d="M1290 595 H1320" />
  
  <!-- Cross-lane flows -->
  <path class="flow" d="M250 150 V210" />
  <path class="flow" d="M600 270 V330" />
  <path class="flow" d="M740 390 V450" />
  <path class="flow" d="M950 480 V570 H1100" />
  <path class="flow" d="M1000 150 V570 H1100" />
  <path class="flow" d="M1370 570 V120 H1382" />
  
  <!-- Rejection flows -->
  <path class="flow" d="M495 210 V180 H340 V210" />
  <path class="flow" d="M845 330 V300 H740 V330" />
  <path class="flow" d="M1265 570 V540 H1150 V570" />
</svg>
