<svg width="800" height="600" xmlns="http://www.w3.org/2000/svg">
  <style>
    .box { fill: none; stroke: white; stroke-width: 1.5; }
    .title { fill: white; font: bold 14px sans-serif; }
    .field { fill: white; font: 12px sans-serif; }
    .separator { stroke: white; stroke-width: 1; }
    .bg { fill: black; }
    .arrow { stroke: white; marker-end: url(#arrow); }
    .dashed { stroke: white; stroke-dasharray: 5,5; }
  </style>
  <defs>
    <marker id="arrow" markerWidth="10" markerHeight="10" refX="10" refY="3" orient="auto">
      <path d="M0,0 L0,6 L9,3 z" fill="white"/>
    </marker>
  </defs>
  <rect class="bg" width="100%" height="100%" />

  <!-- OrderContext -->
  <rect x="280" y="20" width="240" height="110" class="box" />
  <text x="400" y="40" text-anchor="middle" class="title">OrderContext</text>
  <line x1="280" y1="50" x2="520" y2="50" class="separator" />
  <text x="290" y="70" class="field">- currentState: OrderState</text>
  <text x="290" y="90" class="field">+ setState(state: OrderState)</text>
  <text x="290" y="105" class="field">+ nextStage()</text>
  <text x="290" y="120" class="field">+ cancelOrder()</text>

  <!-- Interface -->
  <rect x="330" y="150" width="140" height="40" class="box" />
  <text x="400" y="170" text-anchor="middle" class="title">&lt;&lt;interface&gt;&gt;</text>
  <text x="340" y="185" class="field">OrderState</text>

  <!-- Concrete States -->
  <rect x="20" y="240" width="120" height="70" class="box" />
  <text x="80" y="260" text-anchor="middle" class="field">CreatedState</text>
  <line x1="20" y1="265" x2="140" y2="265" class="separator" />
  <text x="25" y="280" class="field">+ handleNext()</text>
  <text x="25" y="295" class="field">+ handleCancel()</text>

  <rect x="180" y="240" width="120" height="70" class="box" />
  <text x="240" y="260" text-anchor="middle" class="field">ProcessingState</text>
  <line x1="180" y1="265" x2="300" y2="265" class="separator" />
  <text x="185" y="280" class="field">+ handleNext()</text>
  <text x="185" y="295" class="field">+ handleCancel()</text>

  <rect x="340" y="240" width="120" height="70" class="box" />
  <text x="400" y="260" text-anchor="middle" class="field">CompletedState</text>
  <line x1="340" y1="265" x2="460" y2="265" class="separator" />
  <text x="345" y="280" class="field">+ handleNext()</text>
  <text x="345" y="295" class="field">+ handleCancel()</text>

  <rect x="500" y="240" width="120" height="70" class="box" />
  <text x="560" y="260" text-anchor="middle" class="field">CancelledState</text>
  <line x1="500" y1="265" x2="620" y2="265" class="separator" />
  <text x="505" y="280" class="field">+ handleNext()</text>
  <text x="505" y="295" class="field">+ handleCancel()</text>

  <!-- Arrows -->
  <line x1="400" y1="130" x2="400" y2="150" class="arrow" />
  <line x1="400" y1="190" x2="80" y2="240" class="dashed arrow" />
  <line x1="400" y1="190" x2="240" y2="240" class="dashed arrow" />
  <line x1="400" y1="190" x2="400" y2="240" class="dashed arrow" />
  <line x1="400" y1="190" x2="560" y2="240" class="dashed arrow" />
</svg>
