<svg width="700" height="450" xmlns="http://www.w3.org/2000/svg">
  <!-- Background -->
  <rect width="700" height="450" fill="#f8f9fa"/>

  <!-- Title -->
  <text x="350" y="30" text-anchor="middle" fill="black" font-family="Arial" font-size="16" font-weight="bold">
    Factory Method - PrintingHouseMS Payment Factory
  </text>

  <!-- Abstract Creator -->
  <rect x="250" y="70" width="200" height="70" fill="white" stroke="black" stroke-width="1"/>
  <text x="350" y="85" text-anchor="middle" fill="black" font-family="Arial" font-size="10">«abstract»</text>
  <text x="350" y="100" text-anchor="middle" fill="black" font-family="Arial" font-size="12" font-weight="bold">PaymentFactory</text>
  <line x1="250" y1="110" x2="450" y2="110" stroke="black" stroke-width="1"/>
  <text x="260" y="125" fill="black" font-family="Arial" font-size="10">+createPayment(): Payment</text>

  <!-- Concrete Creators -->
  <rect x="80" y="180" width="160" height="60" fill="white" stroke="black" stroke-width="1"/>
  <text x="160" y="195" text-anchor="middle" fill="black" font-family="Arial" font-size="11" font-weight="bold">CreditCardFactory</text>
  <line x1="80" y1="205" x2="240" y2="205" stroke="black" stroke-width="1"/>
  <text x="90" y="220" fill="black" font-family="Arial" font-size="10">+createPayment(): CreditCard</text>

  <rect x="270" y="180" width="160" height="60" fill="white" stroke="black" stroke-width="1"/>
  <text x="350" y="195" text-anchor="middle" fill="black" font-family="Arial" font-size="11" font-weight="bold">BankTransferFactory</text>
  <line x1="270" y1="205" x2="430" y2="205" stroke="black" stroke-width="1"/>
  <text x="280" y="220" fill="black" font-family="Arial" font-size="10">+createPayment(): BankTransfer</text>

  <rect x="460" y="180" width="160" height="60" fill="white" stroke="black" stroke-width="1"/>
  <text x="540" y="195" text-anchor="middle" fill="black" font-family="Arial" font-size="11" font-weight="bold">CashPaymentFactory</text>
  <line x1="460" y1="205" x2="620" y2="205" stroke="black" stroke-width="1"/>
  <text x="470" y="220" fill="black" font-family="Arial" font-size="10">+createPayment(): CashPayment</text>

  <!-- Products -->
  <rect x="90" y="290" width="120" height="50" fill="white" stroke="black" stroke-width="1"/>
  <text x="150" y="305" text-anchor="middle" fill="black" font-family="Arial" font-size="12" font-weight="bold">CreditCard</text>
  <line x1="90" y1="315" x2="210" y2="315" stroke="black" stroke-width="1"/>
  <text x="95" y="330" fill="black" font-family="Arial" font-size="10">+processPayment(): void</text>

  <rect x="290" y="290" width="120" height="50" fill="white" stroke="black" stroke-width="1"/>
  <text x="350" y="305" text-anchor="middle" fill="black" font-family="Arial" font-size="12" font-weight="bold">BankTransfer</text>
  <line x1="290" y1="315" x2="410" y2="315" stroke="black" stroke-width="1"/>
  <text x="295" y="330" fill="black" font-family="Arial" font-size="10">+processPayment(): void</text>

  <rect x="490" y="290" width="120" height="50" fill="white" stroke="black" stroke-width="1"/>
  <text x="550" y="305" text-anchor="middle" fill="black" font-family="Arial" font-size="12" font-weight="bold">CashPayment</text>
  <line x1="490" y1="315" x2="610" y2="315" stroke="black" stroke-width="1"/>
  <text x="495" y="330" fill="black" font-family="Arial" font-size="10">+processPayment(): void</text>

  <!-- Abstract Product -->
  <rect x="300" y="380" width="100" height="40" fill="white" stroke="black" stroke-width="1"/>
  <text x="350" y="395" text-anchor="middle" fill="black" font-family="Arial" font-size="10">«interface»</text>
  <text x="350" y="408" text-anchor="middle" fill="black" font-family="Arial" font-size="12" font-weight="bold">Payment</text>

  <!-- Arrow markers -->
  <defs>
    <marker id="arrow" markerWidth="10" markerHeight="7" refX="9" refY="3.5" orient="auto">
      <polygon points="0 0, 10 3.5, 0 7" fill="black"/>
    </marker>
  </defs>

  <!-- Inheritance arrows -->
  <line x1="160" y1="180" x2="290" y2="140" stroke="black" stroke-width="1" stroke-dasharray="5,5" marker-end="url(#arrow)"/>
  <line x1="350" y1="180" x2="350" y2="140" stroke="black" stroke-width="1" stroke-dasharray="5,5" marker-end="url(#arrow)"/>
  <line x1="540" y1="180" x2="410" y2="140" stroke="black" stroke-width="1" stroke-dasharray="5,5" marker-end="url(#arrow)"/>

  <!-- Creates arrows -->
  <line x1="160" y1="240" x2="150" y2="290" stroke="black" stroke-width="1" stroke-dasharray="3,3" marker-end="url(#arrow)"/>
  <line x1="350" y1="240" x2="350" y2="290" stroke="black" stroke-width="1" stroke-dasharray="3,3" marker-end="url(#arrow)"/>
  <line x1="540" y1="240" x2="550" y2="290" stroke="black" stroke-width="1" stroke-dasharray="3,3" marker-end="url(#arrow)"/>

  <!-- Product inheritance -->
  <line x1="150" y1="340" x2="330" y2="380" stroke="black" stroke-width="1" stroke-dasharray="5,5" marker-end="url(#arrow)"/>
  <line x1="350" y1="340" x2="350" y2="380" stroke="black" stroke-width="1" stroke-dasharray="5,5" marker-end="url(#arrow)"/>
  <line x1="550" y1="340" x2="370" y2="380" stroke="black" stroke-width="1" stroke-dasharray="5,5" marker-end="url(#arrow)"/>

  <!-- Labels -->
  <text x="130" y="270" fill="black" font-family="Arial" font-size="9">creates</text>
  <text x="330" y="270" fill="black" font-family="Arial" font-size="9">creates</text>
  <text x="530" y="270" fill="black" font-family="Arial" font-size="9">creates</text>
</svg>
