<?xml version="1.0" encoding="UTF-8"?>
<svg xmlns="http://www.w3.org/2000/svg" viewBox="0 0 1000 600">
  <!-- Background -->
  <rect width="1000" height="600" fill="#f8f9fa" />

  <!-- Title -->
  <text x="500" y="30" text-anchor="middle" font-family="Arial" font-size="24" font-weight="bold" fill="#333">Order Placement Sequence Diagram</text>

  <!-- Actor & Object Boxes -->
  <rect x="50" y="60" width="100" height="50" rx="5" ry="5" fill="#e3f2fd" stroke="#1976d2" stroke-width="2" />
  <text x="100" y="90" text-anchor="middle" font-family="Arial" font-size="14" fill="#333">Customer</text>
  
  <rect x="250" y="60" width="100" height="50" rx="5" ry="5" fill="#e3f2fd" stroke="#1976d2" stroke-width="2" />
  <text x="300" y="90" text-anchor="middle" font-family="Arial" font-size="14" fill="#333">Customer Portal</text>
  
  <rect x="450" y="60" width="100" height="50" rx="5" ry="5" fill="#e3f2fd" stroke="#1976d2" stroke-width="2" />
  <text x="500" y="90" text-anchor="middle" font-family="Arial" font-size="14" fill="#333">BookConfig</text>
  
  <rect x="650" y="60" width="100" height="50" rx="5" ry="5" fill="#e3f2fd" stroke="#1976d2" stroke-width="2" />
  <text x="700" y="90" text-anchor="middle" font-family="Arial" font-size="14" fill="#333">Order</text>

  <rect x="850" y="60" width="100" height="50" rx="5" ry="5" fill="#e3f2fd" stroke="#1976d2" stroke-width="2" />
  <text x="900" y="90" text-anchor="middle" font-family="Arial" font-size="14" fill="#333">Payment</text>

  <!-- Lifelines -->
  <line x1="100" y1="110" x2="100" y2="550" stroke="#ccc" stroke-width="2" stroke-dasharray="5,5" />
  <line x1="300" y1="110" x2="300" y2="550" stroke="#ccc" stroke-width="2" stroke-dasharray="5,5" />
  <line x1="500" y1="110" x2="500" y2="550" stroke="#ccc" stroke-width="2" stroke-dasharray="5,5" />
  <line x1="700" y1="110" x2="700" y2="550" stroke="#ccc" stroke-width="2" stroke-dasharray="5,5" />
  <line x1="900" y1="110" x2="900" y2="550" stroke="#ccc" stroke-width="2" stroke-dasharray="5,5" />

  <!-- Activation Boxes -->
  <rect x="95" y="150" width="10" height="380" fill="#bbdefb" stroke="#1976d2" stroke-width="1" />
  <rect x="295" y="160" width="10" height="360" fill="#bbdefb" stroke="#1976d2" stroke-width="1" />
  <rect x="495" y="180" width="10" height="80" fill="#bbdefb" stroke="#1976d2" stroke-width="1" />
  <rect x="695" y="290" width="10" height="120" fill="#bbdefb" stroke="#1976d2" stroke-width="1" />
  <rect x="895" y="440" width="10" height="80" fill="#bbdefb" stroke="#1976d2" stroke-width="1" />

  <!-- Messages -->
  <!-- Login -->
  <line x1="105" y1="160" x2="295" y2="160" stroke="#333" stroke-width="1.5" marker-end="url(#arrow)" />
  <text x="200" y="155" text-anchor="middle" font-family="Arial" font-size="12" fill="#333">1. login()</text>

  <!-- Configure Book -->
  <line x1="105" y1="180" x2="295" y2="180" stroke="#333" stroke-width="1.5" marker-end="url(#arrow)" />
  <text x="200" y="175" text-anchor="middle" font-family="Arial" font-size="12" fill="#333">2. configureBook()</text>

  <!-- Create Book Config -->
  <line x1="305" y1="200" x2="495" y2="200" stroke="#333" stroke-width="1.5" marker-end="url(#arrow)" />
  <text x="400" y="195" text-anchor="middle" font-family="Arial" font-size="12" fill="#333">3. createBookConfig()</text>

  <!-- Upload Files -->
  <line x1="105" y1="230" x2="295" y2="230" stroke="#333" stroke-width="1.5" marker-end="url(#arrow)" />
  <text x="200" y="225" text-anchor="middle" font-family="Arial" font-size="12" fill="#333">4. uploadFiles()</text>

  <!-- Validate Files -->
  <line x1="305" y1="250" x2="495" y2="250" stroke="#333" stroke-width="1.5" marker-end="url(#arrow)" />
  <text x="400" y="245" text-anchor="middle" font-family="Arial" font-size="12" fill="#333">5. validateFiles()</text>

  <!-- Calculate Pricing -->
  <line x1="505" y1="270" x2="550" y2="270" stroke="#333" stroke-width="1.5" />
  <line x1="550" y1="270" x2="550" y2="290" stroke="#333" stroke-width="1.5" />
  <line x1="550" y1="290" x2="505" y2="290" stroke="#333" stroke-width="1.5" marker-end="url(#arrow)" />
  <text x="570" y="280" text-anchor="start" font-family="Arial" font-size="12" fill="#333">6. calculatePricing()</text>

  <!-- Return Price -->
  <line x1="495" y1="310" x2="305" y2="310" stroke="#333" stroke-width="1.5" stroke-dasharray="5,5" marker-end="url(#arrow)" />
  <text x="400" y="305" text-anchor="middle" font-family="Arial" font-size="12" fill="#333">7. Return price quote</text>

  <!-- Review Quote -->
  <line x1="295" y1="330" x2="105" y2="330" stroke="#333" stroke-width="1.5" stroke-dasharray="5,5" marker-end="url(#arrow)" />
  <text x="200" y="325" text-anchor="middle" font-family="Arial" font-size="12" fill="#333">8. Display price quote</text>

  <!-- Place Order -->
  <line x1="105" y1="360" x2="295" y2="360" stroke="#333" stroke-width="1.5" marker-end="url(#arrow)" />
  <text x="200" y="355" text-anchor="middle" font-family="Arial" font-size="12" fill="#333">9. placeOrder()</text>

  <!-- Create Order -->
  <line x1="305" y1="380" x2="695" y2="380" stroke="#333" stroke-width="1.5" marker-end="url(#arrow)" />
  <text x="500" y="375" text-anchor="middle" font-family="Arial" font-size="12" fill="#333">10. createOrder()</text>

  <!-- Calculate Total -->
  <line x1="705" y1="400" x2="750" y2="400" stroke="#333" stroke-width="1.5" />
  <line x1="750" y1="400" x2="750" y2="420" stroke="#333" stroke-width="1.5" />
  <line x1="750" y1="420" x2="705" y2="420" stroke="#333" stroke-width="1.5" marker-end="url(#arrow)" />
  <text x="770" y="410" text-anchor="start" font-family="Arial" font-size="12" fill="#333">11. calculateTotal()</text>

  <!-- Process Payment -->
  <line x1="705" y1="440" x2="895" y2="440" stroke="#333" stroke-width="1.5" marker-end="url(#arrow)" />
  <text x="800" y="435" text-anchor="middle" font-family="Arial" font-size="12" fill="#333">12. processPayment()</text>

  <!-- Payment Status -->
  <line x1="895" y1="480" x2="705" y2="480" stroke="#333" stroke-width="1.5" stroke-dasharray="5,5" marker-end="url(#arrow)" />
  <text x="800" y="475" text-anchor="middle" font-family="Arial" font-size="12" fill="#333">13. Return payment status</text>

  <!-- Order Confirmation -->
  <line x1="695" y1="500" x2="305" y2="500" stroke="#333" stroke-width="1.5" stroke-dasharray="5,5" marker-end="url(#arrow)" />
  <text x="500" y="495" text-anchor="middle" font-family="Arial" font-size="12" fill="#333">14. Return order confirmation</text>

  <!-- Order Confirmation to Customer -->
  <line x1="295" y1="520" x2="105" y2="520" stroke="#333" stroke-width="1.5" stroke-dasharray="5,5" marker-end="url(#arrow)" />
  <text x="200" y="515" text-anchor="middle" font-family="Arial" font-size="12" fill="#333">15. Display confirmation</text>

  <!-- Arrow Marker Definition -->
  <defs>
    <marker id="arrow" markerWidth="10" markerHeight="10" refX="9" refY="3" orient="auto" markerUnits="strokeWidth">
      <path d="M0,0 L0,6 L9,3 z" fill="#333" />
    </marker>
  </defs>
</svg>