<?xml version="1.0" encoding="UTF-8"?>
<svg xmlns="http://www.w3.org/2000/svg" viewBox="0 0 900 700">
  <!-- Background -->
  <rect width="900" height="700" fill="#f8f9fa" />

  <!-- Title -->
  <text x="450" y="30" text-anchor="middle" font-family="Arial" font-size="24" font-weight="bold" fill="#333">Order State Diagram</text>

  <!-- Initial state (black dot) -->
  <circle cx="80" cy="100" r="10" fill="black" />

  <!-- States (rounded rectangles) -->
  <!-- Draft State -->
  <rect x="150" y="80" width="120" height="40" rx="15" ry="15" fill="#e3f2fd" stroke="#1976d2" stroke-width="2" />
  <text x="210" y="105" text-anchor="middle" font-family="Arial" font-size="14" fill="#333">Draft</text>

  <!-- Submitted State -->
  <rect x="350" y="80" width="120" height="40" rx="15" ry="15" fill="#e3f2fd" stroke="#1976d2" stroke-width="2" />
  <text x="410" y="105" text-anchor="middle" font-family="Arial" font-size="14" fill="#333">Submitted</text>

  <!-- Pending Payment State -->
  <rect x="550" y="80" width="120" height="40" rx="15" ry="15" fill="#e3f2fd" stroke="#1976d2" stroke-width="2" />
  <text x="610" y="105" text-anchor="middle" font-family="Arial" font-size="14" fill="#333">Pending Payment</text>

  <!-- Confirmed State -->
  <rect x="550" y="180" width="120" height="40" rx="15" ry="15" fill="#e3f2fd" stroke="#1976d2" stroke-width="2" />
  <text x="610" y="205" text-anchor="middle" font-family="Arial" font-size="14" fill="#333">Confirmed</text>

  <!-- In Production State -->
  <rect x="550" y="280" width="120" height="40" rx="15" ry="15" fill="#e3f2fd" stroke="#1976d2" stroke-width="2" />
  <text x="610" y="305" text-anchor="middle" font-family="Arial" font-size="14" fill="#333">In Production</text>

  <!-- QC State -->
  <rect x="550" y="380" width="120" height="40" rx="15" ry="15" fill="#e3f2fd" stroke="#1976d2" stroke-width="2" />
  <text x="610" y="405" text-anchor="middle" font-family="Arial" font-size="14" fill="#333">Quality Control</text>

  <!-- Ready for Shipping State -->
  <rect x="350" y="380" width="120" height="40" rx="15" ry="15" fill="#e3f2fd" stroke="#1976d2" stroke-width="2" />
  <text x="410" y="405" text-anchor="middle" font-family="Arial" font-size="14" fill="#333">Ready for Shipping</text>

  <!-- Shipped State -->
  <rect x="150" y="380" width="120" height="40" rx="15" ry="15" fill="#e3f2fd" stroke="#1976d2" stroke-width="2" />
  <text x="210" y="405" text-anchor="middle" font-family="Arial" font-size="14" fill="#333">Shipped</text>

  <!-- Delivered State -->
  <rect x="150" y="480" width="120" height="40" rx="15" ry="15" fill="#e3f2fd" stroke="#1976d2" stroke-width="2" />
  <text x="210" y="505" text-anchor="middle" font-family="Arial" font-size="14" fill="#333">Delivered</text>

  <!-- Final state (circled dot) -->
  <circle cx="65" cy="500" r="15" fill="white" stroke="black" stroke-width="2" />
  <circle cx="65" cy="500" r="7" fill="black" />
  
  <!-- Cancelled State -->
  <rect x="350" y="580" width="120" height="40" rx="15" ry="15" fill="#ffebee" stroke="#d32f2f" stroke-width="2" />
  <text x="410" y="605" text-anchor="middle" font-family="Arial" font-size="14" fill="#333">Cancelled</text>

  <!-- Transitions (arrows) -->
  <!-- Initial to Draft -->
  <line x1="90" y1="100" x2="150" y2="100" stroke="#333" stroke-width="1.5" marker-end="url(#arrow)" />
  
  <!-- Draft to Submitted -->
  <line x1="270" y1="100" x2="350" y2="100" stroke="#333" stroke-width="1.5" marker-end="url(#arrow)" />
  <text x="310" y="85" text-anchor="middle" font-family="Arial" font-size="12" fill="#333">submit()</text>
  
  <!-- Submitted to Pending Payment -->
  <line x1="470" y1="100" x2="550" y2="100" stroke="#333" stroke-width="1.5" marker-end="url(#arrow)" />
  <text x="510" y="85" text-anchor="middle" font-family="Arial" font-size="12" fill="#333">validate()</text>
  
  <!-- Pending Payment to Confirmed -->
  <line x1="610" y1="120" x2="610" y2="180" stroke="#333" stroke-width="1.5" marker-end="url(#arrow)" />
  <text x="670" y="150" text-anchor="start" font-family="Arial" font-size="12" fill="#333">processPayment()</text>
  
  <!-- Confirmed to In Production -->
  <line x1="610" y1="220" x2="610" y2="280" stroke="#333" stroke-width="1.5" marker-end="url(#arrow)" />
  <text x="670" y="250" text-anchor="start" font-family="Arial" font-size="12" fill="#333">startProduction()</text>
  
  <!-- In Production to QC -->
  <line x1="610" y1="320" x2="610" y2="380" stroke="#333" stroke-width="1.5" marker-end="url(#arrow)" />
  <text x="670" y="350" text-anchor="start" font-family="Arial" font-size="12" fill="#333">completeProduction()</text>
  
  <!-- QC to Ready for Shipping -->
  <line x1="550" y1="400" x2="470" y2="400" stroke="#333" stroke-width="1.5" marker-end="url(#arrow)" />
  <text x="510" y="385" text-anchor="middle" font-family="Arial" font-size="12" fill="#333">passQC()</text>
  
  <!-- QC to In Production (failed) -->
  <path d="M 530,380 Q 480,330 530,280" stroke="#333" stroke-width="1.5" fill="none" marker-end="url(#arrow)" />
  <text x="460" y="330" text-anchor="middle" font-family="Arial" font-size="12" fill="#333">failQC()</text>
  
  <!-- Ready for Shipping to Shipped -->
  <line x1="350" y1="400" x2="270" y2="400" stroke="#333" stroke-width="1.5" marker-end="url(#arrow)" />
  <text x="310" y="385" text-anchor="middle" font-family="Arial" font-size="12" fill="#333">ship()</text>
  
  <!-- Shipped to Delivered -->
  <line x1="210" y1="420" x2="210" y2="480" stroke="#333" stroke-width="1.5" marker-end="url(#arrow)" />
  <text x="260" y="450" text-anchor="start" font-family="Arial" font-size="12" fill="#333">confirmDelivery()</text>
  
  <!-- Delivered to Final -->
  <line x1="150" y1="500" x2="80" y2="500" stroke="#333" stroke-width="1.5" marker-end="url(#arrow)" />
  
  <!-- Cancel transitions -->
  <!-- Draft to Cancelled -->
  <path d="M 180,120 Q 120,350 350,580" stroke="#333" stroke-width="1.5" fill="none" marker-end="url(#arrow)" />
  <text x="140" y="350" text-anchor="middle" font-family="Arial" font-size="12" fill="#333">cancel()</text>
  
  <!-- Submitted to Cancelled -->
  <path d="M 400,120 Q 380,350 400,580" stroke="#333" stroke-width="1.5" fill="none" marker-end="url(#arrow)" />
  <text x="340" y="350" text-anchor="middle" font-family="Arial" font-size="12" fill="#333">cancel()</text>
  
  <!-- Pending Payment to Cancelled -->
  <path d="M 580,120 Q 530,350 470,580" stroke="#333" stroke-width="1.5" fill="none" marker-end="url(#arrow)" />
  <text x="540" y="350" text-anchor="middle" font-family="Arial" font-size="12" fill="#333">cancel()</text>
  
  <!-- Arrow Marker Definition -->
  <defs>
    <marker id="arrow" markerWidth="10" markerHeight="10" refX="9" refY="3" orient="auto" markerUnits="strokeWidth">
      <path d="M0,0 L0,6 L9,3 z" fill="#333" />
    </marker>
  </defs>
  
  <!-- Legend -->
  <rect x="600" y="500" width="20" height="20" rx="15" ry="15" fill="#e3f2fd" stroke="#1976d2" stroke-width="2" />
  <text x="630" y="515" text-anchor="start" font-family="Arial" font-size="12" fill="#333">Normal State</text>
  
  <rect x="600" y="530" width="20" height="20" rx="15" ry="15" fill="#ffebee" stroke="#d32f2f" stroke-width="2" />
  <text x="630" y="545" text-anchor="start" font-family="Arial" font-size="12" fill="#333">Terminal Error State</text>

  <!-- Note about transitions -->
  <text x="600" y="580" text-anchor="start" font-family="Arial" font-size="12" font-style="italic" fill="#555">
    Note: Each transition represents a method call that
  </text>
  <text x="600" y="595" text-anchor="start" font-family="Arial" font-size="12" font-style="italic" fill="#555">
    changes the state of an Order in the system.
  </text>
</svg>