<?xml version="1.0" encoding="UTF-8"?>
<svg xmlns="http://www.w3.org/2000/svg" viewBox="0 0 900 700">
  <!-- Background -->
  <rect width="900" height="700" fill="#f8f9fa" />

  <!-- Title -->
  <text x="450" y="30" text-anchor="middle" font-family="Arial" font-size="24" font-weight="bold" fill="#333">Production Job State Diagram</text>

  <!-- Initial state (black dot) -->
  <circle cx="80" cy="100" r="10" fill="black" />

  <!-- States (rounded rectangles) -->
  <!-- Created State -->
  <rect x="150" y="80" width="120" height="40" rx="15" ry="15" fill="#e8f5e9" stroke="#388e3c" stroke-width="2" />
  <text x="210" y="105" text-anchor="middle" font-family="Arial" font-size="14" fill="#333">Created</text>

  <!-- Assigned State -->
  <rect x="350" y="80" width="120" height="40" rx="15" ry="15" fill="#e8f5e9" stroke="#388e3c" stroke-width="2" />
  <text x="410" y="105" text-anchor="middle" font-family="Arial" font-size="14" fill="#333">Assigned</text>

  <!-- Prepress State -->
  <rect x="350" y="180" width="120" height="40" rx="15" ry="15" fill="#e8f5e9" stroke="#388e3c" stroke-width="2" />
  <text x="410" y="205" text-anchor="middle" font-family="Arial" font-size="14" fill="#333">Prepress</text>

  <!-- Printing State -->
  <rect x="350" y="280" width="120" height="40" rx="15" ry="15" fill="#e8f5e9" stroke="#388e3c" stroke-width="2" />
  <text x="410" y="305" text-anchor="middle" font-family="Arial" font-size="14" fill="#333">Printing</text>

  <!-- Binding State -->
  <rect x="350" y="380" width="120" height="40" rx="15" ry="15" fill="#e8f5e9" stroke="#388e3c" stroke-width="2" />
  <text x="410" y="405" text-anchor="middle" font-family="Arial" font-size="14" fill="#333">Binding</text>

  <!-- Quality Check State -->
  <rect x="150" y="380" width="120" height="40" rx="15" ry="15" fill="#e8f5e9" stroke="#388e3c" stroke-width="2" />
  <text x="210" y="405" text-anchor="middle" font-family="Arial" font-size="14" fill="#333">Quality Check</text>

  <!-- Completed State -->
  <rect x="150" y="480" width="120" height="40" rx="15" ry="15" fill="#e8f5e9" stroke="#388e3c" stroke-width="2" />
  <text x="210" y="505" text-anchor="middle" font-family="Arial" font-size="14" fill="#333">Completed</text>

  <!-- On Hold State -->
  <rect x="600" y="180" width="120" height="40" rx="15" ry="15" fill="#fff3e0" stroke="#e65100" stroke-width="2" />
  <text x="660" y="205" text-anchor="middle" font-family="Arial" font-size="14" fill="#333">On Hold</text>

  <!-- Rejected State -->
  <rect x="600" y="380" width="120" height="40" rx="15" ry="15" fill="#ffebee" stroke="#d32f2f" stroke-width="2" />
  <text x="660" y="405" text-anchor="middle" font-family="Arial" font-size="14" fill="#333">Rejected</text>

  <!-- Cancelled State -->
  <rect x="350" y="580" width="120" height="40" rx="15" ry="15" fill="#ffebee" stroke="#d32f2f" stroke-width="2" />
  <text x="410" y="605" text-anchor="middle" font-family="Arial" font-size="14" fill="#333">Cancelled</text>

  <!-- Final state (circled dot) -->
  <circle cx="65" cy="500" r="15" fill="white" stroke="black" stroke-width="2" />
  <circle cx="65" cy="500" r="7" fill="black" />

  <!-- Transitions (arrows) -->
  <!-- Initial to Created -->
  <line x1="90" y1="100" x2="150" y2="100" stroke="#333" stroke-width="1.5" marker-end="url(#arrow)" />
  
  <!-- Created to Assigned -->
  <line x1="270" y1="100" x2="350" y2="100" stroke="#333" stroke-width="1.5" marker-end="url(#arrow)" />
  <text x="310" y="85" text-anchor="middle" font-family="Arial" font-size="12" fill="#333">assignStaff()</text>
  
  <!-- Assigned to Prepress -->
  <line x1="410" y1="120" x2="410" y2="180" stroke="#333" stroke-width="1.5" marker-end="url(#arrow)" />
  <text x="465" y="150" text-anchor="start" font-family="Arial" font-size="12" fill="#333">startPrepress()</text>
  
  <!-- Prepress to Printing -->
  <line x1="410" y1="220" x2="410" y2="280" stroke="#333" stroke-width="1.5" marker-end="url(#arrow)" />
  <text x="465" y="250" text-anchor="start" font-family="Arial" font-size="12" fill="#333">startPrinting()</text>
  
  <!-- Printing to Binding -->
  <line x1="410" y1="320" x2="410" y2="380" stroke="#333" stroke-width="1.5" marker-end="url(#arrow)" />
  <text x="465" y="350" text-anchor="start" font-family="Arial" font-size="12" fill="#333">startBinding()</text>
  
  <!-- Binding to Quality Check -->
  <line x1="350" y1="400" x2="270" y2="400" stroke="#333" stroke-width="1.5" marker-end="url(#arrow)" />
  <text x="310" y="385" text-anchor="middle" font-family="Arial" font-size="12" fill="#333">submitForQC()</text>
  
  <!-- Quality Check to Completed -->
  <line x1="210" y1="420" x2="210" y2="480" stroke="#333" stroke-width="1.5" marker-end="url(#arrow)" />
  <text x="260" y="450" text-anchor="start" font-family="Arial" font-size="12" fill="#333">passQC()</text>
  
  <!-- Completed to Final -->
  <line x1="150" y1="500" x2="80" y2="500" stroke="#333" stroke-width="1.5" marker-end="url(#arrow)" />
  <text x="120" y="485" text-anchor="middle" font-family="Arial" font-size="12" fill="#333">finalize()</text>
  
  <!-- On Hold transitions -->
  <!-- Prepress to On Hold -->
  <line x1="470" y1="200" x2="600" y2="200" stroke="#333" stroke-width="1.5" marker-end="url(#arrow)" />
  <text x="535" y="185" text-anchor="middle" font-family="Arial" font-size="12" fill="#333">pauseJob()</text>
  
  <!-- On Hold to Prepress -->
  <path d="M 600,175 Q 560,140 470,175" stroke="#333" stroke-width="1.5" fill="none" marker-end="url(#arrow)" />
  <text x="535" y="140" text-anchor="middle" font-family="Arial" font-size="12" fill="#333">resumeJob()</text>
  
  <!-- On Hold to Printing -->
  <path d="M 620,220 Q 580,250 470,280" stroke="#333" stroke-width="1.5" fill="none" marker-end="url(#arrow)" />
  <text x="575" y="265" text-anchor="middle" font-family="Arial" font-size="12" fill="#333">resumeJob()</text>
  
  <!-- On Hold to Binding (path adjusted for clarity) -->
  <path d="M 660,220 Q 680,300 470,380" stroke="#333" stroke-width="1.5" fill="none" marker-end="url(#arrow)" />
  <text x="620" y="310" text-anchor="middle" font-family="Arial" font-size="12" fill="#333">resumeJob()</text>
  
  <!-- Rejection transitions -->
  <!-- Quality Check to Rejected -->
  <line x1="270" y1="400" x2="600" y2="400" stroke="#333" stroke-width="1.5" marker-end="url(#arrow)" />
  <text x="435" y="385" text-anchor="middle" font-family="Arial" font-size="12" fill="#333">failQC()</text>
  
  <!-- Rejected to Printing (rework) -->
  <path d="M 600,380 Q 530,330 470,300" stroke="#333" stroke-width="1.5" fill="none" marker-end="url(#arrow)" />
  <text x="535" y="335" text-anchor="middle" font-family="Arial" font-size="12" fill="#333">rework()</text>
  
  <!-- Cancel transitions -->
  <!-- Created to Cancelled -->
  <path d="M 180,120 Q 120,350 350,580" stroke="#333" stroke-width="1.5" fill="none" marker-end="url(#arrow)" />
  <text x="140" y="350" text-anchor="middle" font-family="Arial" font-size="12" fill="#333">cancel()</text>
  
  <!-- Assigned/active states to Cancelled (cleaner single path) -->
  <path d="M 400,120 Q 380,350 400,580" stroke="#333" stroke-width="1.5" fill="none" marker-end="url(#arrow)" />
  <text x="340" y="350" text-anchor="middle" font-family="Arial" font-size="12" fill="#333">cancel()</text>
  
  <!-- On Hold to Cancelled -->
  <path d="M 680,220 Q 700,400 470,580" stroke="#333" stroke-width="1.5" fill="none" marker-end="url(#arrow)" />
  <text x="700" y="400" text-anchor="middle" font-family="Arial" font-size="12" fill="#333">cancel()</text>
  
  <!-- Rejected to Cancelled -->
  <path d="M 660,420 Q 660,500 470,580" stroke="#333" stroke-width="1.5" fill="none" marker-end="url(#arrow)" />
  <text x="600" y="500" text-anchor="middle" font-family="Arial" font-size="12" fill="#333">cancel()</text>
  
  <!-- Arrow Marker Definition -->
  <defs>
    <marker id="arrow" markerWidth="10" markerHeight="10" refX="9" refY="3" orient="auto" markerUnits="strokeWidth">
      <path d="M0,0 L0,6 L9,3 z" fill="#333" />
    </marker>
  </defs>
  
  <!-- Legend -->
  <rect x="600" y="500" width="20" height="20" rx="15" ry="15" fill="#e8f5e9" stroke="#388e3c" stroke-width="2" />
  <text x="630" y="515" text-anchor="start" font-family="Arial" font-size="12" fill="#333">Normal State</text>
  
  <rect x="600" y="530" width="20" height="20" rx="15" ry="15" fill="#fff3e0" stroke="#e65100" stroke-width="2" />
  <text x="630" y="545" text-anchor="start" font-family="Arial" font-size="12" fill="#333">Temporary State</text>
  
  <rect x="600" y="560" width="20" height="20" rx="15" ry="15" fill="#ffebee" stroke="#d32f2f" stroke-width="2" />
  <text x="630" y="575" text-anchor="start" font-family="Arial" font-size="12" fill="#333">Terminal Error State</text>

  <!-- Note about transitions -->
  <text x="600" y="605" text-anchor="start" font-family="Arial" font-size="12" font-style="italic" fill="#555">
    Note: A production job progresses through normal states
  </text>
  <text x="600" y="620" text-anchor="start" font-family="Arial" font-size="12" font-style="italic" fill="#555">
    sequentially but can enter special states at various points.
  </text>
</svg>